<?xml version="1.0" standalone="no"?>
<!DOCTYPE svg PUBLIC "-//W3C//DTD SVG 20010904//EN"
 "http://www.w3.org/TR/2001/REC-SVG-20010904/DTD/svg10.dtd">
<svg version="1.0" xmlns="http://www.w3.org/2000/svg"
 width="280.000000pt" height="280.000000pt" viewBox="0 0 280.000000 280.000000"
 preserveAspectRatio="xMidYMid meet">
<metadata>
Created by potrace 1.14, written by Peter Selinger 2001-2017
</metadata>
<g transform="translate(0.000000,280.000000) scale(0.100000,-0.100000)"
fill="#000000" stroke="none">
<path d="M1710 2534 c-92 -18 -199 -81 -262 -155 l-42 -47 -28 36 c-60 76
-129 121 -228 147 -281 75 -566 -133 -575 -420 -3 -107 32 -229 84 -289 15
-18 15 -19 -14 -12 -16 4 -67 10 -112 13 -306 21 -538 -257 -468 -564 38 -165
159 -289 321 -326 61 -14 164 -15 223 -2 l33 7 -40 -53 c-105 -141 -92 -272
41 -396 74 -69 170 -120 290 -155 90 -26 100 -21 85 45 -15 68 -41 93 -169
158 -75 38 -134 76 -160 102 -69 70 -70 153 -3 222 41 42 48 44 39 8 -14 -56
-14 -66 -1 -97 31 -75 174 -159 338 -201 247 -62 484 -48 741 45 138 50 245
129 283 208 14 29 14 38 1 82 -22 73 12 65 66 -15 61 -90 8 -204 -126 -276
-91 -48 -306 -116 -422 -132 -137 -20 -169 -32 -200 -73 -51 -66 -43 -141 14
-130 14 3 55 8 91 11 200 18 363 61 503 131 255 129 346 333 223 499 -12 17
-25 35 -28 40 -4 7 19 10 65 8 147 -3 271 40 356 125 89 89 127 199 118 342
-16 272 -200 444 -465 435 l-90 -3 19 42 c27 61 40 200 25 273 -33 161 -136
291 -273 343 -57 22 -196 35 -253 24z m215 -164 c111 -48 176 -170 170 -322
-6 -163 -105 -255 -285 -265 -102 -6 -174 16 -234 73 -89 84 -118 241 -65 354
29 61 83 121 132 147 80 42 201 48 282 13z m-772 -7 c116 -46 180 -158 179
-312 -2 -181 -132 -291 -332 -279 -62 4 -88 10 -131 35 -102 57 -156 164 -147
292 8 102 61 189 149 243 74 46 195 55 282 21z m378 -659 c8 -6 45 -23 83 -38
72 -29 179 -40 255 -26 22 4 41 6 41 5 0 -1 -11 -28 -25 -59 -65 -147 -47
-325 47 -458 l19 -27 -52 15 c-28 9 -85 21 -126 28 -64 12 -76 11 -89 -1 -9
-10 -12 -23 -8 -37 21 -68 29 -76 84 -95 60 -20 139 -74 154 -105 38 -78 -74
-168 -274 -219 -102 -25 -120 -25 -120 2 0 18 31 36 124 72 72 28 140 88 130
115 -4 11 -44 55 -89 99 -106 103 -147 185 -169 334 -7 52 -35 73 -95 74 -76
1 -90 -16 -108 -138 -10 -69 -39 -85 -193 -111 -59 -9 -149 -34 -201 -54 -27
-11 -49 -17 -49 -14 0 3 9 18 20 34 86 121 85 345 -3 499 -26 46 -28 53 -11
47 47 -19 173 -25 253 -12 54 9 114 32 162 62 38 24 119 102 119 115 0 5 24
-15 53 -44 30 -28 60 -57 68 -63z m849 0 c134 -23 233 -170 224 -333 -11 -174
-119 -271 -307 -274 -124 -2 -222 56 -274 161 -24 49 -28 69 -28 142 0 99 21
153 85 219 48 49 89 72 160 87 53 11 65 11 140 -2z m-1774 -53 c53 -14 117
-61 149 -109 79 -120 70 -315 -21 -408 -72 -74 -219 -104 -339 -70 -77 23
-154 98 -180 176 -85 254 132 483 391 411z m585 -684 c-44 -97 -190 -214 -254
-205 -26 4 -57 60 -50 89 9 33 64 80 123 107 51 22 191 62 198 57 2 -2 -6 -23
-17 -48z"/>
<path d="M1753 2309 c-143 -26 -227 -162 -186 -303 28 -96 100 -154 202 -163
119 -11 217 50 247 155 52 179 -85 342 -263 311z m87 -154 c30 -16 41 -37 42
-84 1 -36 -26 -81 -50 -82 -9 -1 -30 -2 -47 -4 -40 -3 -85 41 -85 85 0 41 14
66 48 84 35 19 56 20 92 1z"/>
<path d="M970 2321 c-166 -51 -224 -236 -119 -383 31 -43 117 -80 184 -79 61
0 142 31 174 64 86 93 76 268 -20 351 -59 50 -147 69 -219 47z m130 -163 c11
-13 20 -30 21 -38 9 -79 -27 -124 -93 -116 -48 6 -75 27 -83 68 -20 88 99 154
155 86z"/>
<path d="M1385 1663 c-41 -10 -85 -69 -85 -113 0 -37 31 -90 61 -106 79 -40
173 5 179 86 4 49 0 65 -23 92 -35 41 -78 54 -132 41z m103 -40 c22 -19 39
-63 24 -63 -8 0 -33 25 -61 63 -11 14 -11 17 2 17 8 0 24 -8 35 -17z"/>
<path d="M2229 1630 c-133 -52 -203 -199 -150 -315 37 -82 125 -144 210 -149
90 -5 181 47 223 127 31 60 30 166 -3 223 -59 102 -182 152 -280 114z m112
-146 c59 -30 68 -111 17 -154 -65 -55 -175 18 -147 97 10 28 63 73 87 73 7 0
27 -7 43 -16z"/>
<path d="M470 1603 c-110 -34 -183 -126 -183 -231 0 -173 163 -284 326 -222
97 37 141 104 141 215 0 102 -46 180 -129 219 -34 17 -126 27 -155 19z m108
-158 c42 -30 46 -120 5 -151 -26 -20 -97 -17 -123 4 -14 12 -24 33 -27 60 -4
36 -1 46 25 72 35 34 83 40 120 15z"/>
</g>
</svg>
