<svg width="178" height="58" viewBox="0 0 178 58" fill="none" xmlns="http://www.w3.org/2000/svg">
<path d="M54.5517 57.5483C54.5184 57.5483 54.4864 57.547 54.453 57.543C50.9904 57.1937 47.9477 55.3497 46.3144 52.6123C46.041 52.1523 46.1904 51.5577 46.6504 51.2843C47.1104 51.011 47.705 51.1603 47.9784 51.6203C48.473 52.4497 50.4157 55.1897 54.6477 55.6163C55.1797 55.6697 55.5677 56.1443 55.5144 56.6777C55.4637 57.1763 55.0424 57.5483 54.5517 57.5483Z" fill="#66CDE1"/>
<path d="M11.4893 32.16C17.7613 32.16 22.0253 25.588 22.0253 17.5107C22.0253 9.43202 17.6107 2.86002 11.4893 2.86002H9.93333V32.16H11.4893ZM11.8907 1.98893e-05C23.38 1.98893e-05 30.2027 7.82669 30.2027 17.5107C30.2027 27.1934 22.828 35.02 11.8907 35.02H1.70533C0.452 35.02 0 34.7694 0 33.916C0 32.8627 1.70533 31.4574 1.70533 29.852V5.16802C1.70533 3.56269 0 2.15735 0 1.15469C0 0.250688 0.452 1.98893e-05 1.70533 1.98893e-05H11.8907Z" fill="#1B3671"/>
<path d="M40.5917 17.6412C39.4037 24.7172 40.5904 32.1905 42.2237 32.4652C43.0157 32.5985 43.6517 31.2292 44.0424 28.9038C45.2144 21.9278 44.1917 14.3785 42.5091 14.0972C41.7184 13.9638 40.8664 16.0078 40.5917 17.6412ZM32.1584 20.9052C33.0224 15.7598 37.8277 11.0718 43.7651 12.0692C49.2091 12.9825 53.6557 18.6132 52.5011 25.4905C51.5544 31.1318 46.6077 35.4398 40.7704 34.4598C35.6731 33.6038 30.9117 28.3278 32.1584 20.9052Z" fill="#1B3671"/>
<path d="M121.176 17.6412C119.988 24.7172 121.174 32.1905 122.808 32.4652C123.6 32.5985 124.236 31.2292 124.626 28.9038C125.798 21.9278 124.776 14.3785 123.093 14.0972C122.302 13.9638 121.45 16.0078 121.176 17.6412ZM112.742 20.9052C113.606 15.7598 118.412 11.0718 124.349 12.0692C129.793 12.9825 134.24 18.6132 133.085 25.4905C132.138 31.1318 127.192 35.4398 121.354 34.4598C116.257 33.6038 111.496 28.3278 112.742 20.9052Z" fill="#1B3671"/>
<path d="M136.186 29.3938V18.5564C136.186 16.9511 134.48 16.3991 134.48 15.3964C134.48 13.9911 140.902 11.9844 142.106 11.9844C143.411 11.9844 143.762 12.4858 143.762 14.0911V20.9644C144.214 19.5098 145.418 14.2151 151.188 14.2151C153.747 14.2151 155.102 16.1724 155.102 18.1284C155.102 19.9858 153.847 21.7911 151.338 21.7911C149.331 21.7911 149.231 20.9391 147.876 20.9391C144.816 20.9391 143.818 24.7124 143.762 26.2831V29.3938C143.762 30.9991 145.518 32.4044 145.518 33.4578C145.518 34.3111 145.066 34.5618 143.762 34.5618H136.186C134.931 34.5618 134.48 34.3111 134.48 33.4578C134.48 32.4044 136.186 30.9991 136.186 29.3938Z" fill="#1B3671"/>
<path d="M51.9042 52.5642C51.7469 52.5642 51.5869 52.5269 51.4389 52.4442C48.5269 50.8455 46.6869 48.3029 46.1202 45.0895C45.5989 42.1322 46.2922 39.1842 46.7362 38.6762C47.0896 38.2735 47.7002 38.2335 48.1029 38.5869C48.4536 38.8935 48.5296 39.3962 48.3109 39.7882C48.1682 40.2175 46.0682 47.2869 52.3709 50.7482C52.8402 51.0055 53.0109 51.5935 52.7536 52.0615C52.5776 52.3829 52.2469 52.5642 51.9042 52.5642Z" fill="#66CDE1"/>
<path d="M68.9298 50.2656C67.3138 50.2656 65.9245 49.951 65.2738 49.6323C64.7925 49.3963 64.5938 48.8176 64.8285 48.3363C65.0632 47.855 65.6445 47.6563 66.1232 47.8923C66.8912 48.267 69.8498 48.7576 72.2872 47.6936C73.7832 47.0403 74.7832 45.907 75.2578 44.327C75.4125 43.815 75.9552 43.5256 76.4632 43.6776C76.9752 43.8323 77.2658 44.3723 77.1125 44.8843C76.4752 47.003 75.0752 48.5883 73.0632 49.4683C71.7178 50.0563 70.2485 50.2656 68.9298 50.2656Z" fill="#66CDE1"/>
<path d="M89.9436 11.5854C93.0636 15.2347 93.7703 14.1654 94.5356 13.9454C95.0183 13.8067 96.1996 12.3214 97.0089 11.24C97.4729 10.46 98.2649 9.72404 98.2649 9.18804C98.2649 8.38537 97.8476 8.16271 96.8049 8.16271H90.0516C89.0089 8.16271 88.6343 8.38537 88.6343 9.18804C88.6343 9.72671 89.1383 10.4947 89.6463 11.2734C89.7409 11.3627 89.8383 11.4627 89.9436 11.5854Z" fill="#66CDE1"/>
<path d="M93.6517 16.6378C92.5277 16.6138 91.7091 17.4231 91.2731 18.5831L88.6197 24.7951C88.0131 26.0258 85.8464 25.3644 84.8784 22.9031C83.5437 19.6778 82.0464 16.4511 83.1517 13.4324C83.5264 11.9631 85.2344 10.3871 85.2344 9.39108C85.2344 8.33642 84.6864 8.04442 83.3157 8.04442H75.0837C73.7131 8.04442 73.2197 8.33642 73.2197 9.39108C73.2197 10.5631 75.0291 12.5538 75.6864 14.0764C75.6864 14.0764 82.2077 27.2618 83.3584 31.9484C83.3584 31.9484 83.8517 33.6458 85.9891 33.6458C87.9624 33.6458 88.5104 32.0071 88.5104 32.0071C89.2224 29.4298 91.6344 24.5018 93.5517 20.0511L93.6517 16.6378Z" fill="#1B3671"/>
<path d="M93.4204 16.6378C94.5444 16.6138 95.3631 17.4231 95.7991 18.5831L98.4524 24.7951C99.0591 26.0258 101.226 25.3644 102.194 22.9031C103.528 19.6778 105.026 16.4511 103.92 13.4324C103.546 11.9631 101.838 10.3871 101.838 9.39108C101.838 8.33642 102.386 8.04442 103.756 8.04442H111.988C113.359 8.04442 113.852 8.33642 113.852 9.39108C113.852 10.5631 112.043 12.5538 111.386 14.0764C111.386 14.0764 104.864 27.2618 103.714 31.9484C103.714 31.9484 103.22 33.6458 101.083 33.6458C99.1097 33.6458 98.5617 32.0071 98.5617 32.0071C97.8497 29.4298 95.4377 24.5018 93.5204 20.0511L93.4204 16.6378Z" fill="#1B3671"/>
<path d="M67.4121 29.1004C67.0507 31.4284 66.3281 32.9404 65.4281 32.8017C63.6827 32.5297 62.1641 24.871 63.2654 17.783C63.5201 16.143 64.4561 13.959 65.3027 14.091C67.1547 14.3777 68.4974 22.1177 67.4121 29.1004ZM72.5334 15.323C70.9481 13.667 68.8494 12.5284 66.6281 12.183C60.7041 11.263 55.9507 16.0497 55.1521 21.1817C53.9934 28.6404 58.8121 33.8857 63.9441 34.683C66.2707 35.0457 68.4574 34.5724 70.3027 33.5044C72.0241 33.935 73.1694 35.6297 72.9307 37.1644C72.7334 38.4337 71.7347 39.6324 68.9841 39.2044C65.6507 38.687 61.6721 34.655 58.0747 34.0964C53.2094 33.3404 50.6054 37.5404 50.1281 40.6084C49.3467 45.6337 52.5654 49.331 55.9507 49.8564C58.3307 50.227 59.4041 48.551 59.6014 47.2817C59.9627 44.955 57.2587 43.8844 55.3014 43.579C52.8681 43.2017 52.0467 42.207 52.1614 41.4657C52.2521 40.8844 52.9774 40.4017 53.8774 40.5404C58.0561 41.191 62.2467 45.255 66.6374 45.9377C71.7147 46.727 74.6801 42.6364 75.2721 38.8284C75.7414 35.8124 74.1827 33.295 72.1974 32.1204C73.9747 30.4457 75.2001 28.1444 75.6027 25.551C76.1214 22.219 75.3481 19.1737 73.7561 16.867L72.5334 15.323Z" fill="#1B3671"/>
<path d="M150.306 15.6025C150.98 15.0399 151.832 14.6879 152.765 14.6345L152.285 13.9759C152.185 13.7745 152.134 13.5745 152.134 13.3732C152.134 12.0692 154.041 10.8145 154.041 9.96121C154.041 9.05854 153.589 8.80787 152.285 8.80787H147.87C146.616 8.80787 146.114 9.05854 146.114 9.96121C146.114 10.9652 148.472 13.0719 149.124 13.9759L150.306 15.6025Z" fill="#1B3671"/>
<path d="M168.996 33.0338L162.588 23.9098L166.802 17.2378C167.455 16.2845 169.712 14.2271 169.712 13.2245C169.712 12.3205 169.26 12.0698 168.006 12.0698H159.226C157.922 12.0698 157.47 12.3205 157.47 13.2245C157.47 14.0765 159.376 15.3311 159.376 16.6351C159.376 16.8365 159.327 17.0365 159.226 17.2378L158.986 17.6058L159.034 17.5738L151.45 29.4791C150.798 30.3831 148.439 32.4898 148.439 33.5431C148.439 34.3965 148.94 34.6471 150.195 34.6471H159.026C160.28 34.6471 160.782 34.3965 160.782 33.5431C160.782 32.6405 158.875 31.3858 158.875 30.0818C158.875 29.8805 158.926 29.6805 159.026 29.4791L161.083 26.2178L165.835 33.0338C165.936 33.2338 165.986 33.4351 165.986 33.5858C165.986 34.8898 164.079 36.1951 164.079 37.0471C164.079 37.9511 164.582 38.1511 165.835 38.1511H170.251C171.504 38.1511 172.007 37.9511 172.007 37.0471C172.007 36.0445 169.648 33.9365 168.996 33.0338Z" fill="#1B3671"/>
<path d="M82.2444 52.0444V41.7097H84.4295V45.9738H88.8651V41.7097H91.0451V52.0444H88.8651V47.7753H84.4295V52.0444H82.2444ZM94.1334 54.9511C93.8609 54.9511 93.6052 54.9292 93.3664 54.8855C93.1309 54.8451 92.9358 54.793 92.781 54.729L93.2655 53.1243C93.5178 53.2017 93.7448 53.2438 93.9467 53.2505C94.1519 53.2572 94.3285 53.2101 94.4766 53.1092C94.6279 53.0083 94.7507 52.8367 94.8449 52.5945L94.9711 52.2665L92.1906 44.2934H94.4513L96.056 49.9856H96.1368L97.7566 44.2934H100.032L97.0199 52.8821C96.8752 53.2993 96.6784 53.6626 96.4295 53.9721C96.1839 54.285 95.8727 54.5255 95.4959 54.6937C95.1191 54.8653 94.665 54.9511 94.1334 54.9511ZM103.739 52.1706C103.15 52.1706 102.617 52.0192 102.139 51.7164C101.665 51.4103 101.288 50.9612 101.009 50.3691C100.733 49.7736 100.595 49.0436 100.595 48.179C100.595 47.2909 100.738 46.5524 101.024 45.9637C101.31 45.3716 101.69 44.9292 102.165 44.6365C102.642 44.3405 103.165 44.1925 103.734 44.1925C104.168 44.1925 104.53 44.2665 104.819 44.4145C105.112 44.5591 105.347 44.7408 105.525 44.9595C105.707 45.1748 105.845 45.3867 105.939 45.5953H106.005V41.7097H108.149V52.0444H106.03V50.8031H105.939C105.838 51.0184 105.695 51.232 105.51 51.4439C105.329 51.6525 105.091 51.8258 104.799 51.9637C104.509 52.1016 104.156 52.1706 103.739 52.1706ZM104.42 50.4599C104.767 50.4599 105.059 50.3657 105.298 50.1773C105.54 49.9856 105.726 49.7181 105.853 49.375C105.985 49.0318 106.05 48.6298 106.05 48.1689C106.05 47.708 105.986 47.3077 105.858 46.9679C105.731 46.6281 105.546 46.3657 105.303 46.1807C105.061 45.9957 104.767 45.9031 104.42 45.9031C104.067 45.9031 103.769 45.999 103.527 46.1908C103.285 46.3825 103.101 46.6483 102.977 46.9881C102.853 47.3279 102.79 47.7215 102.79 48.1689C102.79 48.6197 102.853 49.0184 102.977 49.3649C103.105 49.708 103.288 49.9771 103.527 50.1723C103.769 50.364 104.067 50.4599 104.42 50.4599ZM109.917 52.0444V44.2934H112.001V45.6458H112.082C112.223 45.1647 112.46 44.8014 112.793 44.5558C113.126 44.3068 113.51 44.1824 113.944 44.1824C114.051 44.1824 114.167 44.1891 114.292 44.2025C114.416 44.216 114.526 44.2345 114.62 44.2581V46.1655C114.519 46.1353 114.379 46.1084 114.201 46.0848C114.023 46.0613 113.86 46.0495 113.712 46.0495C113.395 46.0495 113.113 46.1184 112.864 46.2564C112.618 46.3909 112.423 46.5793 112.278 46.8216C112.137 47.0638 112.067 47.343 112.067 47.6592V52.0444H109.917ZM118.873 52.1958C118.089 52.1958 117.411 52.0293 116.839 51.6962C116.271 51.3598 115.831 50.8922 115.522 50.2934C115.212 49.6912 115.058 48.9931 115.058 48.1992C115.058 47.3985 115.212 46.6988 115.522 46.0999C115.831 45.4978 116.271 45.0301 116.839 44.6971C117.411 44.3607 118.089 44.1925 118.873 44.1925C119.657 44.1925 120.333 44.3607 120.901 44.6971C121.473 45.0301 121.914 45.4978 122.223 46.0999C122.533 46.6988 122.688 47.3985 122.688 48.1992C122.688 48.9931 122.533 49.6912 122.223 50.2934C121.914 50.8922 121.473 51.3598 120.901 51.6962C120.333 52.0293 119.657 52.1958 118.873 52.1958ZM118.883 50.5306C119.239 50.5306 119.537 50.4296 119.776 50.2278C120.015 50.0226 120.195 49.7433 120.316 49.3901C120.44 49.0369 120.503 48.6348 120.503 48.184C120.503 47.7332 120.44 47.3312 120.316 46.978C120.195 46.6248 120.015 46.3455 119.776 46.1403C119.537 45.9351 119.239 45.8325 118.883 45.8325C118.523 45.8325 118.22 45.9351 117.974 46.1403C117.732 46.3455 117.549 46.6248 117.424 46.978C117.303 47.3312 117.243 47.7332 117.243 48.184C117.243 48.6348 117.303 49.0369 117.424 49.3901C117.549 49.7433 117.732 50.0226 117.974 50.2278C118.22 50.4296 118.523 50.5306 118.883 50.5306ZM128.208 44.2934V45.9082H123.54V44.2934H128.208ZM124.6 42.4364H126.75V49.6626C126.75 49.8611 126.78 50.0158 126.841 50.1269C126.901 50.2345 126.985 50.3102 127.093 50.3539C127.204 50.3977 127.332 50.4195 127.477 50.4195C127.577 50.4195 127.678 50.4111 127.779 50.3943C127.88 50.3741 127.958 50.359 128.011 50.3489L128.35 51.9486C128.242 51.9822 128.091 52.0209 127.895 52.0646C127.7 52.1117 127.463 52.1403 127.184 52.1504C126.666 52.1706 126.212 52.1016 125.821 51.9435C125.435 51.7854 125.133 51.5398 124.918 51.2068C124.703 50.8737 124.597 50.4532 124.6 49.9452V42.4364ZM131.925 47.5634V52.0444H129.775V41.7097H131.864V45.6609H131.955C132.13 45.2034 132.413 44.8451 132.803 44.5861C133.193 44.3237 133.683 44.1925 134.271 44.1925C134.81 44.1925 135.279 44.3102 135.679 44.5457C136.083 44.7778 136.396 45.1126 136.618 45.5499C136.843 45.9839 136.954 46.5036 136.951 47.1092V52.0444H134.801V47.4927C134.805 47.015 134.683 46.6433 134.438 46.3775C134.196 46.1117 133.856 45.9788 133.419 45.9788C133.126 45.9788 132.867 46.0411 132.641 46.1655C132.419 46.29 132.244 46.4717 132.117 46.7105C131.992 46.946 131.928 47.2303 131.925 47.5634ZM142.175 52.1958C141.378 52.1958 140.691 52.0343 140.116 51.7114C139.544 51.3851 139.104 50.9242 138.794 50.3287C138.485 49.7299 138.33 49.0217 138.33 48.2042C138.33 47.4069 138.485 46.7072 138.794 46.105C139.104 45.5028 139.539 45.0335 140.101 44.6971C140.666 44.3607 141.329 44.1925 142.089 44.1925C142.601 44.1925 143.077 44.2749 143.517 44.4397C143.961 44.6012 144.348 44.8451 144.678 45.1714C145.011 45.4978 145.27 45.9082 145.455 46.4027C145.64 46.8939 145.733 47.4692 145.733 48.1285V48.7189H139.188V47.3867H143.709C143.709 47.0772 143.642 46.8031 143.507 46.5642C143.373 46.3253 143.186 46.1386 142.947 46.0041C142.712 45.8661 142.437 45.7972 142.125 45.7972C141.798 45.7972 141.509 45.8729 141.257 46.0242C141.008 46.1723 140.813 46.3724 140.671 46.6248C140.53 46.8737 140.458 47.1512 140.454 47.4574V48.724C140.454 49.1075 140.525 49.4389 140.666 49.7181C140.811 49.9973 141.014 50.2126 141.277 50.364C141.539 50.5154 141.85 50.5911 142.21 50.5911C142.449 50.5911 142.668 50.5575 142.866 50.4902C143.065 50.4229 143.235 50.322 143.376 50.1874C143.517 50.0528 143.625 49.888 143.699 49.6929L145.687 49.8241C145.586 50.3018 145.379 50.7189 145.067 51.0756C144.757 51.4288 144.357 51.7047 143.866 51.9031C143.378 52.0983 142.814 52.1958 142.175 52.1958ZM147.136 52.0444V44.2934H149.22V45.6458H149.3C149.442 45.1647 149.679 44.8014 150.012 44.5558C150.345 44.3068 150.728 44.1824 151.162 44.1824C151.27 44.1824 151.386 44.1891 151.511 44.2025C151.635 44.216 151.744 44.2345 151.839 44.2581V46.1655C151.738 46.1353 151.598 46.1084 151.42 46.0848C151.242 46.0613 151.078 46.0495 150.93 46.0495C150.614 46.0495 150.331 46.1184 150.083 46.2564C149.837 46.3909 149.642 46.5793 149.497 46.8216C149.356 47.0638 149.285 47.343 149.285 47.6592V52.0444H147.136ZM154.938 52.1908C154.444 52.1908 154.003 52.105 153.616 51.9334C153.229 51.7585 152.923 51.5011 152.698 51.1613C152.476 50.8182 152.365 50.3909 152.365 49.8796C152.365 49.449 152.444 49.0873 152.602 48.7946C152.76 48.502 152.975 48.2665 153.248 48.0882C153.52 47.9099 153.83 47.7753 154.176 47.6845C154.526 47.5936 154.893 47.5297 155.276 47.4927C155.727 47.4456 156.091 47.4019 156.366 47.3615C156.642 47.3178 156.842 47.2539 156.967 47.1697C157.091 47.0856 157.154 46.9612 157.154 46.7963V46.766C157.154 46.4465 157.053 46.1992 156.851 46.0242C156.652 45.8493 156.37 45.7618 156.003 45.7618C155.616 45.7618 155.308 45.8476 155.08 46.0192C154.851 46.1874 154.699 46.3994 154.625 46.655L152.637 46.4935C152.738 46.0226 152.937 45.6155 153.233 45.2724C153.529 44.9258 153.911 44.6601 154.378 44.475C154.849 44.2867 155.394 44.1925 156.013 44.1925C156.444 44.1925 156.856 44.2429 157.249 44.3438C157.646 44.4448 157.998 44.6012 158.304 44.8131C158.614 45.0251 158.858 45.2976 159.036 45.6306C159.214 45.9603 159.303 46.3556 159.303 46.8165V52.0444H157.265V50.9696H157.204C157.08 51.2118 156.913 51.4254 156.705 51.6105C156.496 51.7921 156.245 51.9351 155.953 52.0394C155.66 52.1403 155.322 52.1908 154.938 52.1908ZM155.554 50.7072C155.87 50.7072 156.149 50.6449 156.392 50.5205C156.634 50.3926 156.824 50.2211 156.962 50.0057C157.1 49.7904 157.169 49.5465 157.169 49.274V48.4515C157.101 48.4952 157.009 48.5356 156.891 48.5726C156.777 48.6062 156.647 48.6382 156.503 48.6685C156.358 48.6954 156.213 48.7206 156.069 48.7442C155.924 48.7644 155.793 48.7829 155.675 48.7997C155.423 48.8367 155.202 48.8956 155.014 48.9763C154.826 49.057 154.679 49.1664 154.575 49.3043C154.471 49.4389 154.419 49.6071 154.419 49.8089C154.419 50.1016 154.525 50.3253 154.736 50.4801C154.952 50.6315 155.224 50.7072 155.554 50.7072ZM160.971 54.9511V44.2934H163.091V45.5953H163.186C163.281 45.3867 163.417 45.1748 163.595 44.9595C163.777 44.7408 164.012 44.5591 164.302 44.4145C164.594 44.2665 164.958 44.1925 165.392 44.1925C165.957 44.1925 166.478 44.3405 166.956 44.6365C167.434 44.9292 167.816 45.3716 168.101 45.9637C168.387 46.5524 168.53 47.2909 168.53 48.179C168.53 49.0436 168.391 49.7736 168.112 50.3691C167.836 50.9612 167.459 51.4103 166.981 51.7164C166.507 52.0192 165.975 52.1706 165.387 52.1706C164.969 52.1706 164.615 52.1016 164.322 51.9637C164.033 51.8258 163.795 51.6525 163.61 51.4439C163.425 51.232 163.284 51.0184 163.186 50.8031H163.121V54.9511H160.971ZM163.075 48.1689C163.075 48.6298 163.139 49.0318 163.267 49.375C163.395 49.7181 163.58 49.9856 163.822 50.1773C164.064 50.3657 164.359 50.4599 164.705 50.4599C165.055 50.4599 165.351 50.364 165.593 50.1723C165.836 49.9771 166.019 49.708 166.144 49.3649C166.271 49.0184 166.335 48.6197 166.335 48.1689C166.335 47.7215 166.273 47.3279 166.149 46.9881C166.024 46.6483 165.841 46.3825 165.599 46.1908C165.356 45.999 165.059 45.9031 164.705 45.9031C164.355 45.9031 164.059 45.9957 163.817 46.1807C163.578 46.3657 163.395 46.6281 163.267 46.9679C163.139 47.3077 163.075 47.708 163.075 48.1689ZM171.041 54.9511C170.768 54.9511 170.513 54.9292 170.274 54.8855C170.038 54.8451 169.843 54.793 169.689 54.729L170.173 53.1243C170.425 53.2017 170.652 53.2438 170.854 53.2505C171.059 53.2572 171.236 53.2101 171.384 53.1092C171.535 53.0083 171.658 52.8367 171.752 52.5945L171.879 52.2665L169.098 44.2934H171.359L172.964 49.9856H173.044L174.664 44.2934H176.94L173.927 52.8821C173.783 53.2993 173.586 53.6626 173.337 53.9721C173.091 54.285 172.78 54.5255 172.403 54.6937C172.027 54.8653 171.572 54.9511 171.041 54.9511Z" fill="#66CDE1"/>
</svg>
